<mxfile host="app.diagrams.net" modified="2022-11-30T13:12:39.742Z" agent="5.0 (Windows NT 10.0; Win64; x64) AppleWebKit/537.36 (KHTML, like Gecko) Chrome/104.0.0.0 Safari/537.36" etag="EKa91fCA-rMMWf4Bp6SB" version="20.6.0" type="github">
  <diagram name="Page-1" id="80d4a630-b321-0f5e-ff81-c5a36ef4752d">
    <mxGraphModel dx="2062" dy="1122" grid="1" gridSize="10" guides="1" tooltips="1" connect="1" arrows="1" fold="1" page="1" pageScale="1" pageWidth="1100" pageHeight="850" background="none" math="0" shadow="0">
      <root>
        <mxCell id="0" />
        <mxCell id="1" parent="0" />
        <mxCell id="5c82df7aa0dc6260-15" value="Enterprise Network" style="ellipse;whiteSpace=wrap;html=1;rounded=1;shadow=0;comic=0;labelBackgroundColor=none;strokeColor=#6881B3;strokeWidth=2;fillColor=#CCFFCC;fontFamily=Helvetica;fontSize=22;fontColor=#000000;verticalAlign=middle;gradientColor=none;gradientDirection=north;spacingBottom=36;" parent="1" vertex="1">
          <mxGeometry x="1313" y="568" width="580" height="250" as="geometry" />
        </mxCell>
        <mxCell id="5c82df7aa0dc6260-43" value="" style="ellipse;shape=cloud;whiteSpace=wrap;html=1;rounded=1;shadow=0;comic=0;strokeColor=none;strokeWidth=2;fillColor=#3399FF;fontColor=#0066CC;" parent="1" vertex="1">
          <mxGeometry x="1469" y="618" width="110" height="35" as="geometry" />
        </mxCell>
        <mxCell id="5c82df7aa0dc6260-14" value="Mobile Network" style="ellipse;whiteSpace=wrap;html=1;rounded=1;shadow=0;comic=0;labelBackgroundColor=none;strokeColor=#6881B3;strokeWidth=2;fillColor=#CCFFCC;fontFamily=Helvetica;fontSize=22;fontColor=#000000;verticalAlign=middle;gradientColor=none;gradientDirection=north;spacingBottom=17;" parent="1" vertex="1">
          <mxGeometry x="306" y="548" width="683" height="270" as="geometry" />
        </mxCell>
        <mxCell id="5c82df7aa0dc6260-13" value="ISP Network" style="ellipse;whiteSpace=wrap;html=1;rounded=1;shadow=0;comic=0;labelBackgroundColor=none;strokeColor=#6881B3;strokeWidth=2;fillColor=#CCFFCC;fontFamily=Helvetica;fontSize=22;fontColor=#000000;verticalAlign=middle;gradientColor=none;gradientDirection=north;" parent="1" vertex="1">
          <mxGeometry x="976" y="71" width="720" height="270" as="geometry" />
        </mxCell>
        <mxCell id="5c82df7aa0dc6260-58" style="edgeStyle=none;rounded=0;html=1;entryX=0.67;entryY=0.5;entryPerimeter=0;labelBackgroundColor=none;endArrow=none;strokeColor=#6881B3;strokeWidth=2;fontFamily=Verdana;fontSize=28;fontColor=#0066CC;" parent="1" source="5c82df7aa0dc6260-1" target="5c82df7aa0dc6260-2" edge="1">
          <mxGeometry relative="1" as="geometry" />
        </mxCell>
        <mxCell id="5c82df7aa0dc6260-61" style="edgeStyle=none;rounded=0;html=1;entryX=0.67;entryY=0.5;entryPerimeter=0;labelBackgroundColor=none;endArrow=none;strokeColor=#6881B3;strokeWidth=2;fontFamily=Verdana;fontSize=28;fontColor=#0066CC;" parent="1" source="5c82df7aa0dc6260-1" target="5c82df7aa0dc6260-4" edge="1">
          <mxGeometry relative="1" as="geometry" />
        </mxCell>
        <mxCell id="5c82df7aa0dc6260-62" style="edgeStyle=none;rounded=0;html=1;entryX=0.67;entryY=0.5;entryPerimeter=0;labelBackgroundColor=none;endArrow=none;strokeColor=#6881B3;strokeWidth=2;fontFamily=Verdana;fontSize=28;fontColor=#0066CC;" parent="1" source="5c82df7aa0dc6260-1" target="5c82df7aa0dc6260-3" edge="1">
          <mxGeometry relative="1" as="geometry" />
        </mxCell>
        <mxCell id="5c82df7aa0dc6260-63" style="edgeStyle=none;rounded=0;html=1;entryX=0.33;entryY=0.5;entryPerimeter=0;labelBackgroundColor=none;endArrow=none;strokeColor=#6881B3;strokeWidth=2;fontFamily=Verdana;fontSize=28;fontColor=#0066CC;" parent="1" source="5c82df7aa0dc6260-1" target="5c82df7aa0dc6260-7" edge="1">
          <mxGeometry relative="1" as="geometry" />
        </mxCell>
        <mxCell id="5c82df7aa0dc6260-1" value="" style="fontColor=#0066CC;verticalAlign=top;verticalLabelPosition=bottom;labelPosition=center;align=center;html=1;fillColor=#FFFFFF;strokeColor=#000000;gradientColor=none;gradientDirection=north;strokeWidth=2;shape=mxgraph.networks.radio_tower;rounded=1;shadow=0;comic=0;labelBackgroundColor=none;" parent="1" vertex="1">
          <mxGeometry x="914" y="566" width="55" height="100" as="geometry" />
        </mxCell>
        <mxCell id="5c82df7aa0dc6260-2" value="" style="fontColor=#0066CC;verticalAlign=top;verticalLabelPosition=bottom;labelPosition=center;align=center;html=1;fillColor=#FFFFFF;strokeColor=#000000;gradientColor=none;gradientDirection=north;strokeWidth=2;shape=mxgraph.networks.radio_tower;rounded=1;shadow=0;comic=0;labelBackgroundColor=none;" parent="1" vertex="1">
          <mxGeometry x="606" y="473" width="55" height="100" as="geometry" />
        </mxCell>
        <mxCell id="5c82df7aa0dc6260-3" value="" style="fontColor=#0066CC;verticalAlign=top;verticalLabelPosition=bottom;labelPosition=center;align=center;html=1;fillColor=#FFFFFF;strokeColor=#000000;gradientColor=none;gradientDirection=north;strokeWidth=2;shape=mxgraph.networks.radio_tower;rounded=1;shadow=0;comic=0;labelBackgroundColor=none;" parent="1" vertex="1">
          <mxGeometry x="326" y="582" width="55" height="100" as="geometry" />
        </mxCell>
        <mxCell id="5c82df7aa0dc6260-4" value="" style="fontColor=#0066CC;verticalAlign=top;verticalLabelPosition=bottom;labelPosition=center;align=center;html=1;fillColor=#FFFFFF;strokeColor=#000000;gradientColor=none;gradientDirection=north;strokeWidth=2;shape=mxgraph.networks.radio_tower;rounded=1;shadow=0;comic=0;labelBackgroundColor=none;" parent="1" vertex="1">
          <mxGeometry x="606" y="707" width="55" height="100" as="geometry" />
        </mxCell>
        <mxCell id="5c82df7aa0dc6260-19" style="edgeStyle=none;rounded=0;html=1;labelBackgroundColor=none;endArrow=none;strokeColor=#6881B3;strokeWidth=2;fontFamily=Verdana;fontSize=28;fontColor=#0066CC;" parent="1" edge="1">
          <mxGeometry relative="1" as="geometry">
            <mxPoint x="1241.9999999999995" y="91" as="sourcePoint" />
            <mxPoint x="1439" y="91" as="targetPoint" />
          </mxGeometry>
        </mxCell>
        <mxCell id="5c82df7aa0dc6260-23" style="edgeStyle=none;rounded=0;html=1;labelBackgroundColor=none;endArrow=none;strokeColor=#6881B3;strokeWidth=2;fontFamily=Verdana;fontSize=28;fontColor=#0066CC;" parent="1" target="5c82df7aa0dc6260-22" edge="1">
          <mxGeometry relative="1" as="geometry">
            <mxPoint x="1186.9999999999995" y="108.24738675958201" as="sourcePoint" />
          </mxGeometry>
        </mxCell>
        <mxCell id="5c82df7aa0dc6260-5" value="" style="fontColor=#0066CC;verticalAlign=top;verticalLabelPosition=bottom;labelPosition=center;align=center;html=1;fillColor=#FFFFFF;strokeColor=#000000;gradientColor=none;gradientDirection=north;strokeWidth=2;shape=mxgraph.networks.radio_tower;rounded=1;shadow=0;comic=0;labelBackgroundColor=none;" parent="1" vertex="1">
          <mxGeometry x="1188" y="33" width="55" height="100" as="geometry" />
        </mxCell>
        <mxCell id="5c82df7aa0dc6260-18" style="edgeStyle=none;rounded=0;html=1;labelBackgroundColor=none;endArrow=none;strokeColor=#6881B3;strokeWidth=2;fontFamily=Verdana;fontSize=28;fontColor=#0066CC;" parent="1" source="5c82df7aa0dc6260-6" edge="1">
          <mxGeometry relative="1" as="geometry">
            <mxPoint x="1519.178571428571" y="141" as="targetPoint" />
          </mxGeometry>
        </mxCell>
        <mxCell id="5c82df7aa0dc6260-6" value="" style="fontColor=#0066CC;verticalAlign=top;verticalLabelPosition=bottom;labelPosition=center;align=center;html=1;fillColor=#FFFFFF;strokeColor=#000000;gradientColor=none;gradientDirection=north;strokeWidth=2;shape=mxgraph.networks.radio_tower;rounded=1;shadow=0;comic=0;labelBackgroundColor=none;" parent="1" vertex="1">
          <mxGeometry x="1555" y="181" width="55" height="100" as="geometry" />
        </mxCell>
        <mxCell id="5c82df7aa0dc6260-16" style="edgeStyle=none;rounded=0;html=1;labelBackgroundColor=none;endArrow=none;strokeColor=#6881B3;strokeWidth=2;fontFamily=Verdana;fontSize=28;fontColor=#0066CC;entryX=0.189;entryY=0.801;entryPerimeter=0;" parent="1" source="5c82df7aa0dc6260-7" target="5c82df7aa0dc6260-6" edge="1">
          <mxGeometry relative="1" as="geometry">
            <mxPoint x="1382.9999999999995" y="383" as="targetPoint" />
          </mxGeometry>
        </mxCell>
        <mxCell id="5c82df7aa0dc6260-25" style="edgeStyle=none;rounded=0;html=1;labelBackgroundColor=none;endArrow=none;strokeColor=#6881B3;strokeWidth=2;fontFamily=Verdana;fontSize=28;fontColor=#0066CC;" parent="1" source="5c82df7aa0dc6260-7" target="5c82df7aa0dc6260-8" edge="1">
          <mxGeometry relative="1" as="geometry" />
        </mxCell>
        <mxCell id="5c82df7aa0dc6260-7" value="" style="fontColor=#0066CC;verticalAlign=top;verticalLabelPosition=bottom;labelPosition=center;align=center;html=1;fillColor=#FFFFFF;strokeColor=#000000;gradientColor=none;gradientDirection=north;strokeWidth=2;shape=mxgraph.networks.radio_tower;rounded=1;shadow=0;comic=0;labelBackgroundColor=none;" parent="1" vertex="1">
          <mxGeometry x="1463" y="388" width="55" height="100" as="geometry" />
        </mxCell>
        <mxCell id="5c82df7aa0dc6260-26" style="edgeStyle=none;rounded=0;html=1;labelBackgroundColor=none;endArrow=none;strokeColor=#6881B3;strokeWidth=2;fontFamily=Verdana;fontSize=28;fontColor=#0066CC;" parent="1" source="5c82df7aa0dc6260-8" target="5c82df7aa0dc6260-12" edge="1">
          <mxGeometry relative="1" as="geometry" />
        </mxCell>
        <mxCell id="5c82df7aa0dc6260-8" value="" style="fontColor=#0066CC;verticalAlign=top;verticalLabelPosition=bottom;labelPosition=center;align=center;html=1;fillColor=#CCCCCC;strokeColor=#000000;gradientColor=none;gradientDirection=north;strokeWidth=2;shape=mxgraph.networks.business_center;rounded=1;shadow=0;comic=0;labelBackgroundColor=none;" parent="1" vertex="1">
          <mxGeometry x="1553" y="508" width="90" height="100" as="geometry" />
        </mxCell>
        <mxCell id="5c82df7aa0dc6260-28" style="edgeStyle=none;rounded=0;html=1;labelBackgroundColor=none;endArrow=none;strokeColor=#6881B3;strokeWidth=2;fontFamily=Verdana;fontSize=28;fontColor=#0066CC;" parent="1" source="5c82df7aa0dc6260-9" target="5c82df7aa0dc6260-10" edge="1">
          <mxGeometry relative="1" as="geometry" />
        </mxCell>
        <mxCell id="5c82df7aa0dc6260-9" value="" style="fontColor=#0066CC;verticalAlign=top;verticalLabelPosition=bottom;labelPosition=center;align=center;html=1;fillColor=#CCCCCC;strokeColor=#000000;gradientColor=none;gradientDirection=north;strokeWidth=2;shape=mxgraph.networks.business_center;rounded=1;shadow=0;comic=0;labelBackgroundColor=none;" parent="1" vertex="1">
          <mxGeometry x="1583" y="698" width="90" height="100" as="geometry" />
        </mxCell>
        <mxCell id="5c82df7aa0dc6260-29" style="edgeStyle=none;rounded=0;html=1;labelBackgroundColor=none;endArrow=none;strokeColor=#6881B3;strokeWidth=2;fontFamily=Verdana;fontSize=28;fontColor=#0066CC;" parent="1" source="5c82df7aa0dc6260-10" target="5c82df7aa0dc6260-8" edge="1">
          <mxGeometry relative="1" as="geometry" />
        </mxCell>
        <mxCell id="5c82df7aa0dc6260-10" value="" style="fontColor=#0066CC;verticalAlign=top;verticalLabelPosition=bottom;labelPosition=center;align=center;html=1;fillColor=#CCCCCC;strokeColor=#000000;gradientColor=none;gradientDirection=north;strokeWidth=2;shape=mxgraph.networks.business_center;rounded=1;shadow=0;comic=0;labelBackgroundColor=none;" parent="1" vertex="1">
          <mxGeometry x="1333" y="598" width="90" height="100" as="geometry" />
        </mxCell>
        <mxCell id="5c82df7aa0dc6260-27" style="edgeStyle=none;rounded=0;html=1;labelBackgroundColor=none;endArrow=none;strokeColor=#6881B3;strokeWidth=2;fontFamily=Verdana;fontSize=28;fontColor=#0066CC;" parent="1" source="5c82df7aa0dc6260-12" target="5c82df7aa0dc6260-9" edge="1">
          <mxGeometry relative="1" as="geometry" />
        </mxCell>
        <mxCell id="5c82df7aa0dc6260-12" value="" style="fontColor=#0066CC;verticalAlign=top;verticalLabelPosition=bottom;labelPosition=center;align=center;html=1;fillColor=#CCCCCC;strokeColor=#000000;gradientColor=none;gradientDirection=north;strokeWidth=2;shape=mxgraph.networks.community;rounded=1;shadow=0;comic=0;labelBackgroundColor=none;" parent="1" vertex="1">
          <mxGeometry x="1783" y="608" width="95" height="100" as="geometry" />
        </mxCell>
        <mxCell id="5c82df7aa0dc6260-17" value="" style="fontColor=#0066CC;verticalAlign=top;verticalLabelPosition=bottom;labelPosition=center;align=center;html=1;fillColor=#CCCCCC;strokeColor=#000000;gradientColor=none;gradientDirection=north;strokeWidth=2;shape=mxgraph.networks.business_center;rounded=1;shadow=0;comic=0;labelBackgroundColor=none;" parent="1" vertex="1">
          <mxGeometry x="1431" y="54" width="90" height="100" as="geometry" />
        </mxCell>
        <mxCell id="5c82df7aa0dc6260-20" value="" style="fontColor=#0066CC;verticalAlign=top;verticalLabelPosition=bottom;labelPosition=center;align=center;html=1;fillColor=#CCCCCC;strokeColor=#000000;gradientColor=none;gradientDirection=north;strokeWidth=2;shape=mxgraph.networks.community;rounded=1;shadow=0;comic=0;" parent="1" vertex="1">
          <mxGeometry x="1276" y="231" width="95" height="100" as="geometry" />
        </mxCell>
        <mxCell id="5c82df7aa0dc6260-24" style="edgeStyle=none;rounded=0;html=1;labelBackgroundColor=none;endArrow=none;strokeColor=#6881B3;strokeWidth=2;fontFamily=Verdana;fontSize=28;fontColor=#0066CC;" parent="1" source="5c82df7aa0dc6260-22" target="5c82df7aa0dc6260-20" edge="1">
          <mxGeometry relative="1" as="geometry" />
        </mxCell>
        <mxCell id="5c82df7aa0dc6260-22" value="" style="fontColor=#0066CC;verticalAlign=top;verticalLabelPosition=bottom;labelPosition=center;align=center;html=1;fillColor=#CCCCCC;strokeColor=#000000;gradientColor=none;gradientDirection=north;strokeWidth=2;shape=mxgraph.networks.business_center;rounded=1;shadow=0;comic=0;labelBackgroundColor=none;" parent="1" vertex="1">
          <mxGeometry x="1026" y="131" width="90" height="100" as="geometry" />
        </mxCell>
        <mxCell id="5c82df7aa0dc6260-31" value="" style="shape=image;html=1;verticalAlign=top;verticalLabelPosition=bottom;labelBackgroundColor=#ffffff;imageAspect=0;aspect=fixed;image=https://cdn0.iconfinder.com/data/icons/fatcow/32x32/tree.png;rounded=1;shadow=0;comic=0;strokeColor=#6881B3;strokeWidth=2;fillColor=#CCFFCC;fontColor=#0066CC;" parent="1" vertex="1">
          <mxGeometry x="1663" y="576" width="32" height="32" as="geometry" />
        </mxCell>
        <mxCell id="5c82df7aa0dc6260-32" value="" style="shape=image;html=1;verticalAlign=top;verticalLabelPosition=bottom;labelBackgroundColor=#ffffff;imageAspect=0;aspect=fixed;image=https://cdn0.iconfinder.com/data/icons/fatcow/32x32/tree.png;rounded=1;shadow=0;comic=0;strokeColor=#6881B3;strokeWidth=2;fillColor=#CCFFCC;fontColor=#0066CC;" parent="1" vertex="1">
          <mxGeometry x="1693" y="592" width="32" height="32" as="geometry" />
        </mxCell>
        <mxCell id="5c82df7aa0dc6260-33" value="" style="shape=image;html=1;verticalAlign=top;verticalLabelPosition=bottom;labelBackgroundColor=#ffffff;imageAspect=0;aspect=fixed;image=https://cdn0.iconfinder.com/data/icons/fatcow/32x32/tree.png;rounded=1;shadow=0;comic=0;strokeColor=#6881B3;strokeWidth=2;fillColor=#CCFFCC;fontColor=#0066CC;" parent="1" vertex="1">
          <mxGeometry x="1673" y="608" width="32" height="32" as="geometry" />
        </mxCell>
        <mxCell id="5c82df7aa0dc6260-34" value="" style="shape=image;html=1;verticalAlign=top;verticalLabelPosition=bottom;labelBackgroundColor=#ffffff;imageAspect=0;aspect=fixed;image=https://cdn0.iconfinder.com/data/icons/fatcow/32x32/tree.png;rounded=1;shadow=0;comic=0;strokeColor=#6881B3;strokeWidth=2;fillColor=#CCFFCC;fontColor=#0066CC;" parent="1" vertex="1">
          <mxGeometry x="1453" y="624" width="32" height="32" as="geometry" />
        </mxCell>
        <mxCell id="5c82df7aa0dc6260-38" value="" style="shape=image;html=1;verticalAlign=top;verticalLabelPosition=bottom;labelBackgroundColor=#ffffff;imageAspect=0;aspect=fixed;image=https://cdn0.iconfinder.com/data/icons/fatcow/32x32/tree.png;rounded=1;shadow=0;comic=0;strokeColor=#6881B3;strokeWidth=2;fillColor=#CCFFCC;fontColor=#0066CC;" parent="1" vertex="1">
          <mxGeometry x="1537" y="748" width="32" height="32" as="geometry" />
        </mxCell>
        <mxCell id="5c82df7aa0dc6260-37" value="" style="shape=image;html=1;verticalAlign=top;verticalLabelPosition=bottom;labelBackgroundColor=#ffffff;imageAspect=0;aspect=fixed;image=https://cdn0.iconfinder.com/data/icons/fatcow/32x32/tree.png;rounded=1;shadow=0;comic=0;strokeColor=#6881B3;strokeWidth=2;fillColor=#CCFFCC;fontColor=#0066CC;" parent="1" vertex="1">
          <mxGeometry x="1521" y="764" width="32" height="32" as="geometry" />
        </mxCell>
        <mxCell id="5c82df7aa0dc6260-35" value="" style="shape=image;html=1;verticalAlign=top;verticalLabelPosition=bottom;labelBackgroundColor=#ffffff;imageAspect=0;aspect=fixed;image=https://cdn0.iconfinder.com/data/icons/fatcow/32x32/tree.png;rounded=1;shadow=0;comic=0;strokeColor=#6881B3;strokeWidth=2;fillColor=#CCFFCC;fontColor=#0066CC;" parent="1" vertex="1">
          <mxGeometry x="1466" y="638" width="32" height="32" as="geometry" />
        </mxCell>
        <mxCell id="5c82df7aa0dc6260-39" value="" style="shape=image;html=1;verticalAlign=top;verticalLabelPosition=bottom;labelBackgroundColor=#ffffff;imageAspect=0;aspect=fixed;image=https://cdn0.iconfinder.com/data/icons/fatcow/32x32/tree.png;rounded=1;shadow=0;comic=0;strokeColor=#6881B3;strokeWidth=2;fillColor=#CCFFCC;fontColor=#0066CC;" parent="1" vertex="1">
          <mxGeometry x="1679" y="738" width="32" height="32" as="geometry" />
        </mxCell>
        <mxCell id="5c82df7aa0dc6260-40" value="" style="shape=image;html=1;verticalAlign=top;verticalLabelPosition=bottom;labelBackgroundColor=#ffffff;imageAspect=0;aspect=fixed;image=https://cdn0.iconfinder.com/data/icons/fatcow/32x32/tree.png;rounded=1;shadow=0;comic=0;strokeColor=#6881B3;strokeWidth=2;fillColor=#CCFFCC;fontColor=#0066CC;" parent="1" vertex="1">
          <mxGeometry x="1693" y="744" width="32" height="32" as="geometry" />
        </mxCell>
        <mxCell id="5c82df7aa0dc6260-36" value="" style="shape=image;html=1;verticalAlign=top;verticalLabelPosition=bottom;labelBackgroundColor=#ffffff;imageAspect=0;aspect=fixed;image=https://cdn0.iconfinder.com/data/icons/fatcow/32x32/tree.png;rounded=1;shadow=0;comic=0;strokeColor=#6881B3;strokeWidth=2;fillColor=#CCFFCC;fontColor=#0066CC;" parent="1" vertex="1">
          <mxGeometry x="1687" y="764" width="32" height="32" as="geometry" />
        </mxCell>
        <mxCell id="5c82df7aa0dc6260-41" value="" style="shape=image;html=1;verticalAlign=top;verticalLabelPosition=bottom;labelBackgroundColor=#ffffff;imageAspect=0;aspect=fixed;image=https://cdn0.iconfinder.com/data/icons/fatcow/32x32/tree.png;rounded=1;shadow=0;comic=0;strokeColor=#6881B3;strokeWidth=2;fillColor=#CCFFCC;fontColor=#0066CC;" parent="1" vertex="1">
          <mxGeometry x="1751" y="693" width="32" height="32" as="geometry" />
        </mxCell>
        <mxCell id="5c82df7aa0dc6260-42" value="" style="shape=image;html=1;verticalAlign=top;verticalLabelPosition=bottom;labelBackgroundColor=#ffffff;imageAspect=0;aspect=fixed;image=https://cdn0.iconfinder.com/data/icons/fatcow/32x32/tree.png;rounded=1;shadow=0;comic=0;strokeColor=#6881B3;strokeWidth=2;fillColor=#CCFFCC;fontColor=#0066CC;" parent="1" vertex="1">
          <mxGeometry x="1434" y="635" width="32" height="32" as="geometry" />
        </mxCell>
        <mxCell id="5c82df7aa0dc6260-44" value="" style="ellipse;shape=cloud;whiteSpace=wrap;html=1;rounded=1;shadow=0;comic=0;strokeColor=none;strokeWidth=2;fillColor=#3399FF;fontColor=#0066CC;" parent="1" vertex="1">
          <mxGeometry x="1261" y="149" width="110" height="35" as="geometry" />
        </mxCell>
        <mxCell id="5c82df7aa0dc6260-45" value="" style="shape=image;html=1;verticalAlign=top;verticalLabelPosition=bottom;labelBackgroundColor=#ffffff;imageAspect=0;aspect=fixed;image=https://cdn0.iconfinder.com/data/icons/fatcow/32x32/tree.png;rounded=1;shadow=0;comic=0;strokeColor=#6881B3;strokeWidth=2;fillColor=#CCFFCC;fontColor=#0066CC;" parent="1" vertex="1">
          <mxGeometry x="1539" y="81" width="32" height="32" as="geometry" />
        </mxCell>
        <mxCell id="5c82df7aa0dc6260-46" value="" style="shape=image;html=1;verticalAlign=top;verticalLabelPosition=bottom;labelBackgroundColor=#ffffff;imageAspect=0;aspect=fixed;image=https://cdn0.iconfinder.com/data/icons/fatcow/32x32/tree.png;rounded=1;shadow=0;comic=0;strokeColor=#6881B3;strokeWidth=2;fillColor=#CCFFCC;fontColor=#0066CC;" parent="1" vertex="1">
          <mxGeometry x="1571" y="91" width="32" height="32" as="geometry" />
        </mxCell>
        <mxCell id="5c82df7aa0dc6260-47" value="" style="shape=image;html=1;verticalAlign=top;verticalLabelPosition=bottom;labelBackgroundColor=#ffffff;imageAspect=0;aspect=fixed;image=https://cdn0.iconfinder.com/data/icons/fatcow/32x32/tree.png;rounded=1;shadow=0;comic=0;strokeColor=#6881B3;strokeWidth=2;fillColor=#CCFFCC;fontColor=#0066CC;" parent="1" vertex="1">
          <mxGeometry x="1559" y="101" width="32" height="32" as="geometry" />
        </mxCell>
        <mxCell id="5c82df7aa0dc6260-48" value="" style="shape=image;html=1;verticalAlign=top;verticalLabelPosition=bottom;labelBackgroundColor=#ffffff;imageAspect=0;aspect=fixed;image=https://cdn0.iconfinder.com/data/icons/fatcow/32x32/tree.png;rounded=1;shadow=0;comic=0;strokeColor=#6881B3;strokeWidth=2;fillColor=#CCFFCC;fontColor=#0066CC;" parent="1" vertex="1">
          <mxGeometry x="1593" y="104" width="32" height="32" as="geometry" />
        </mxCell>
        <mxCell id="5c82df7aa0dc6260-49" value="" style="shape=image;html=1;verticalAlign=top;verticalLabelPosition=bottom;labelBackgroundColor=#ffffff;imageAspect=0;aspect=fixed;image=https://cdn0.iconfinder.com/data/icons/fatcow/32x32/tree.png;rounded=1;shadow=0;comic=0;strokeColor=#6881B3;strokeWidth=2;fillColor=#CCFFCC;fontColor=#0066CC;" parent="1" vertex="1">
          <mxGeometry x="1407" y="241" width="32" height="32" as="geometry" />
        </mxCell>
        <mxCell id="5c82df7aa0dc6260-50" value="" style="shape=image;html=1;verticalAlign=top;verticalLabelPosition=bottom;labelBackgroundColor=#ffffff;imageAspect=0;aspect=fixed;image=https://cdn0.iconfinder.com/data/icons/fatcow/32x32/tree.png;rounded=1;shadow=0;comic=0;strokeColor=#6881B3;strokeWidth=2;fillColor=#CCFFCC;fontColor=#0066CC;" parent="1" vertex="1">
          <mxGeometry x="1431" y="249" width="32" height="32" as="geometry" />
        </mxCell>
        <mxCell id="5c82df7aa0dc6260-51" value="" style="shape=image;html=1;verticalAlign=top;verticalLabelPosition=bottom;labelBackgroundColor=#ffffff;imageAspect=0;aspect=fixed;image=https://cdn0.iconfinder.com/data/icons/fatcow/32x32/tree.png;rounded=1;shadow=0;comic=0;strokeColor=#6881B3;strokeWidth=2;fillColor=#CCFFCC;fontColor=#0066CC;" parent="1" vertex="1">
          <mxGeometry x="1415" y="265" width="32" height="32" as="geometry" />
        </mxCell>
        <mxCell id="5c82df7aa0dc6260-52" value="" style="shape=image;html=1;verticalAlign=top;verticalLabelPosition=bottom;labelBackgroundColor=#ffffff;imageAspect=0;aspect=fixed;image=https://cdn0.iconfinder.com/data/icons/fatcow/32x32/tree.png;rounded=1;shadow=0;comic=0;strokeColor=#6881B3;strokeWidth=2;fillColor=#CCFFCC;fontColor=#0066CC;" parent="1" vertex="1">
          <mxGeometry x="1323" y="124" width="32" height="32" as="geometry" />
        </mxCell>
        <mxCell id="5c82df7aa0dc6260-53" value="" style="shape=image;html=1;verticalAlign=top;verticalLabelPosition=bottom;labelBackgroundColor=#ffffff;imageAspect=0;aspect=fixed;image=https://cdn0.iconfinder.com/data/icons/fatcow/32x32/tree.png;rounded=1;shadow=0;comic=0;strokeColor=#6881B3;strokeWidth=2;fillColor=#CCFFCC;fontColor=#0066CC;" parent="1" vertex="1">
          <mxGeometry x="1284" y="120" width="32" height="32" as="geometry" />
        </mxCell>
        <mxCell id="5c82df7aa0dc6260-54" value="" style="shape=image;html=1;verticalAlign=top;verticalLabelPosition=bottom;labelBackgroundColor=#ffffff;imageAspect=0;aspect=fixed;image=https://cdn0.iconfinder.com/data/icons/fatcow/32x32/tree.png;rounded=1;shadow=0;comic=0;strokeColor=#6881B3;strokeWidth=2;fillColor=#CCFFCC;fontColor=#0066CC;" parent="1" vertex="1">
          <mxGeometry x="1257" y="156" width="32" height="32" as="geometry" />
        </mxCell>
        <mxCell id="5c82df7aa0dc6260-55" value="" style="shape=image;html=1;verticalAlign=top;verticalLabelPosition=bottom;labelBackgroundColor=#ffffff;imageAspect=0;aspect=fixed;image=https://cdn0.iconfinder.com/data/icons/fatcow/32x32/tree.png;rounded=1;shadow=0;comic=0;strokeColor=#6881B3;strokeWidth=2;fillColor=#CCFFCC;fontColor=#0066CC;" parent="1" vertex="1">
          <mxGeometry x="1071" y="120" width="32" height="32" as="geometry" />
        </mxCell>
        <mxCell id="5c82df7aa0dc6260-56" value="" style="shape=image;html=1;verticalAlign=top;verticalLabelPosition=bottom;labelBackgroundColor=#ffffff;imageAspect=0;aspect=fixed;image=https://cdn0.iconfinder.com/data/icons/fatcow/32x32/tree.png;rounded=1;shadow=0;comic=0;strokeColor=#6881B3;strokeWidth=2;fillColor=#CCFFCC;fontColor=#0066CC;" parent="1" vertex="1">
          <mxGeometry x="1087" y="125" width="32" height="32" as="geometry" />
        </mxCell>
        <mxCell id="5c82df7aa0dc6260-57" value="" style="shape=image;html=1;verticalAlign=top;verticalLabelPosition=bottom;labelBackgroundColor=#ffffff;imageAspect=0;aspect=fixed;image=https://cdn0.iconfinder.com/data/icons/fatcow/32x32/tree.png;rounded=1;shadow=0;comic=0;strokeColor=#6881B3;strokeWidth=2;fillColor=#CCFFCC;fontColor=#0066CC;" parent="1" vertex="1">
          <mxGeometry x="1103" y="233" width="32" height="32" as="geometry" />
        </mxCell>
        <mxCell id="5c82df7aa0dc6260-21" style="edgeStyle=none;rounded=0;html=1;labelBackgroundColor=none;endArrow=none;strokeColor=#6881B3;strokeWidth=2;fontFamily=Verdana;fontSize=28;fontColor=#0066CC;" parent="1" source="5c82df7aa0dc6260-6" target="5c82df7aa0dc6260-20" edge="1">
          <mxGeometry relative="1" as="geometry" />
        </mxCell>
        <mxCell id="5c82df7aa0dc6260-64" value="" style="shape=image;html=1;verticalAlign=top;verticalLabelPosition=bottom;labelBackgroundColor=#ffffff;imageAspect=0;aspect=fixed;image=https://cdn0.iconfinder.com/data/icons/fatcow/32x32/tree.png;rounded=1;shadow=0;comic=0;strokeColor=#6881B3;strokeWidth=2;fillColor=#CCFFCC;fontColor=#0066CC;" parent="1" vertex="1">
          <mxGeometry x="661" y="557" width="32" height="32" as="geometry" />
        </mxCell>
        <mxCell id="5c82df7aa0dc6260-65" value="" style="shape=image;html=1;verticalAlign=top;verticalLabelPosition=bottom;labelBackgroundColor=#ffffff;imageAspect=0;aspect=fixed;image=https://cdn0.iconfinder.com/data/icons/fatcow/32x32/tree.png;rounded=1;shadow=0;comic=0;strokeColor=#6881B3;strokeWidth=2;fillColor=#CCFFCC;fontColor=#0066CC;" parent="1" vertex="1">
          <mxGeometry x="566" y="550" width="32" height="32" as="geometry" />
        </mxCell>
        <mxCell id="5c82df7aa0dc6260-66" value="" style="shape=image;html=1;verticalAlign=top;verticalLabelPosition=bottom;labelBackgroundColor=#ffffff;imageAspect=0;aspect=fixed;image=https://cdn0.iconfinder.com/data/icons/fatcow/32x32/tree.png;rounded=1;shadow=0;comic=0;strokeColor=#6881B3;strokeWidth=2;fillColor=#CCFFCC;fontColor=#0066CC;" parent="1" vertex="1">
          <mxGeometry x="576" y="560" width="32" height="32" as="geometry" />
        </mxCell>
        <mxCell id="5c82df7aa0dc6260-67" value="" style="shape=image;html=1;verticalAlign=top;verticalLabelPosition=bottom;labelBackgroundColor=#ffffff;imageAspect=0;aspect=fixed;image=https://cdn0.iconfinder.com/data/icons/fatcow/32x32/tree.png;rounded=1;shadow=0;comic=0;strokeColor=#6881B3;strokeWidth=2;fillColor=#CCFFCC;fontColor=#0066CC;" parent="1" vertex="1">
          <mxGeometry x="608" y="582" width="32" height="32" as="geometry" />
        </mxCell>
        <mxCell id="5c82df7aa0dc6260-68" value="" style="shape=image;html=1;verticalAlign=top;verticalLabelPosition=bottom;labelBackgroundColor=#ffffff;imageAspect=0;aspect=fixed;image=https://cdn0.iconfinder.com/data/icons/fatcow/32x32/tree.png;rounded=1;shadow=0;comic=0;strokeColor=#6881B3;strokeWidth=2;fillColor=#CCFFCC;fontColor=#0066CC;" parent="1" vertex="1">
          <mxGeometry x="416" y="738" width="32" height="32" as="geometry" />
        </mxCell>
        <mxCell id="5c82df7aa0dc6260-69" value="" style="shape=image;html=1;verticalAlign=top;verticalLabelPosition=bottom;labelBackgroundColor=#ffffff;imageAspect=0;aspect=fixed;image=https://cdn0.iconfinder.com/data/icons/fatcow/32x32/tree.png;rounded=1;shadow=0;comic=0;strokeColor=#6881B3;strokeWidth=2;fillColor=#CCFFCC;fontColor=#0066CC;" parent="1" vertex="1">
          <mxGeometry x="466" y="714" width="32" height="32" as="geometry" />
        </mxCell>
        <mxCell id="5c82df7aa0dc6260-70" value="" style="shape=image;html=1;verticalAlign=top;verticalLabelPosition=bottom;labelBackgroundColor=#ffffff;imageAspect=0;aspect=fixed;image=https://cdn0.iconfinder.com/data/icons/fatcow/32x32/tree.png;rounded=1;shadow=0;comic=0;strokeColor=#6881B3;strokeWidth=2;fillColor=#CCFFCC;fontColor=#0066CC;" parent="1" vertex="1">
          <mxGeometry x="450" y="741" width="32" height="32" as="geometry" />
        </mxCell>
        <mxCell id="5c82df7aa0dc6260-71" value="" style="shape=image;html=1;verticalAlign=top;verticalLabelPosition=bottom;labelBackgroundColor=#ffffff;imageAspect=0;aspect=fixed;image=https://cdn0.iconfinder.com/data/icons/fatcow/32x32/tree.png;rounded=1;shadow=0;comic=0;strokeColor=#6881B3;strokeWidth=2;fillColor=#CCFFCC;fontColor=#0066CC;" parent="1" vertex="1">
          <mxGeometry x="482" y="732" width="32" height="32" as="geometry" />
        </mxCell>
        <mxCell id="5c82df7aa0dc6260-72" value="" style="shape=image;html=1;verticalAlign=top;verticalLabelPosition=bottom;labelBackgroundColor=#ffffff;imageAspect=0;aspect=fixed;image=https://cdn0.iconfinder.com/data/icons/fatcow/32x32/tree.png;rounded=1;shadow=0;comic=0;strokeColor=#6881B3;strokeWidth=2;fillColor=#CCFFCC;fontColor=#0066CC;" parent="1" vertex="1">
          <mxGeometry x="909" y="688" width="32" height="32" as="geometry" />
        </mxCell>
        <mxCell id="5c82df7aa0dc6260-73" value="" style="shape=image;html=1;verticalAlign=top;verticalLabelPosition=bottom;labelBackgroundColor=#ffffff;imageAspect=0;aspect=fixed;image=https://cdn0.iconfinder.com/data/icons/fatcow/32x32/tree.png;rounded=1;shadow=0;comic=0;strokeColor=#6881B3;strokeWidth=2;fillColor=#CCFFCC;fontColor=#0066CC;" parent="1" vertex="1">
          <mxGeometry x="893" y="700" width="32" height="32" as="geometry" />
        </mxCell>
        <mxCell id="5c82df7aa0dc6260-74" value="" style="shape=image;html=1;verticalAlign=top;verticalLabelPosition=bottom;labelBackgroundColor=#ffffff;imageAspect=0;aspect=fixed;image=https://cdn0.iconfinder.com/data/icons/fatcow/32x32/tree.png;rounded=1;shadow=0;comic=0;strokeColor=#6881B3;strokeWidth=2;fillColor=#CCFFCC;fontColor=#0066CC;" parent="1" vertex="1">
          <mxGeometry x="864" y="672" width="32" height="32" as="geometry" />
        </mxCell>
        <mxCell id="5c82df7aa0dc6260-75" value="" style="shape=image;html=1;verticalAlign=top;verticalLabelPosition=bottom;labelBackgroundColor=#ffffff;imageAspect=0;aspect=fixed;image=https://cdn0.iconfinder.com/data/icons/fatcow/32x32/tree.png;rounded=1;shadow=0;comic=0;strokeColor=#6881B3;strokeWidth=2;fillColor=#CCFFCC;fontColor=#0066CC;" parent="1" vertex="1">
          <mxGeometry x="726" y="746" width="32" height="32" as="geometry" />
        </mxCell>
        <mxCell id="5c82df7aa0dc6260-76" value="" style="shape=image;html=1;verticalAlign=top;verticalLabelPosition=bottom;labelBackgroundColor=#ffffff;imageAspect=0;aspect=fixed;image=https://cdn0.iconfinder.com/data/icons/fatcow/32x32/tree.png;rounded=1;shadow=0;comic=0;strokeColor=#6881B3;strokeWidth=2;fillColor=#CCFFCC;fontColor=#0066CC;" parent="1" vertex="1">
          <mxGeometry x="710" y="756" width="32" height="32" as="geometry" />
        </mxCell>
        <mxCell id="5c82df7aa0dc6260-77" value="" style="fontColor=#0066CC;verticalAlign=top;verticalLabelPosition=bottom;labelPosition=center;align=center;html=1;fillColor=#CCCCCC;strokeColor=#000000;gradientColor=none;gradientDirection=north;strokeWidth=2;shape=mxgraph.networks.satellite;rounded=1;shadow=0;comic=0;" parent="1" vertex="1">
          <mxGeometry x="1071" y="373" width="100" height="100" as="geometry" />
        </mxCell>
        <mxCell id="5c82df7aa0dc6260-78" value="" style="html=1;fillColor=#CCCCCC;strokeColor=#000000;gradientColor=none;gradientDirection=north;strokeWidth=2;shape=mxgraph.networks.comm_link_edge;html=1;labelBackgroundColor=none;endArrow=none;fontFamily=Verdana;fontSize=22;fontColor=#000000;" parent="1" target="5c82df7aa0dc6260-77" edge="1">
          <mxGeometry width="100" height="100" relative="1" as="geometry">
            <mxPoint x="968" y="558" as="sourcePoint" />
            <mxPoint x="978" y="448" as="targetPoint" />
          </mxGeometry>
        </mxCell>
        <mxCell id="5c82df7aa0dc6260-79" value="" style="html=1;fillColor=#CCCCCC;strokeColor=#000000;gradientColor=none;gradientDirection=north;strokeWidth=2;shape=mxgraph.networks.comm_link_edge;html=1;labelBackgroundColor=none;endArrow=none;fontFamily=Verdana;fontSize=22;fontColor=#000000;" parent="1" source="5c82df7aa0dc6260-77" target="5c82df7aa0dc6260-10" edge="1">
          <mxGeometry width="100" height="100" relative="1" as="geometry">
            <mxPoint x="952" y="591" as="sourcePoint" />
            <mxPoint x="1280" y="640" as="targetPoint" />
          </mxGeometry>
        </mxCell>
        <mxCell id="5c82df7aa0dc6260-81" value="" style="html=1;fillColor=#CCCCCC;strokeColor=#000000;gradientColor=none;gradientDirection=north;strokeWidth=2;shape=mxgraph.networks.comm_link_edge;html=1;labelBackgroundColor=none;endArrow=none;fontFamily=Verdana;fontSize=22;fontColor=#000000;" parent="1" source="5c82df7aa0dc6260-77" target="5c82df7aa0dc6260-22" edge="1">
          <mxGeometry width="100" height="100" relative="1" as="geometry">
            <mxPoint x="1118" y="408" as="sourcePoint" />
            <mxPoint x="1563" y="557.8876404494381" as="targetPoint" />
          </mxGeometry>
        </mxCell>
        <mxCell id="e8Pi3fWuV_YfXIQ5iZxT-1" value="Actor" style="shape=umlActor;verticalLabelPosition=bottom;verticalAlign=top;html=1;outlineConnect=0;" vertex="1" parent="1">
          <mxGeometry x="442" y="128.5" width="134" height="205" as="geometry" />
        </mxCell>
        <mxCell id="e8Pi3fWuV_YfXIQ5iZxT-2" value="" style="endArrow=none;dashed=1;html=1;dashPattern=1 3;strokeWidth=2;rounded=0;exitX=1;exitY=0.3333333333333333;exitDx=0;exitDy=0;exitPerimeter=0;entryX=0.5;entryY=0.15;entryDx=0;entryDy=0;entryPerimeter=0;" edge="1" parent="1" source="e8Pi3fWuV_YfXIQ5iZxT-1" target="5c82df7aa0dc6260-2">
          <mxGeometry width="50" height="50" relative="1" as="geometry">
            <mxPoint x="1020" y="400" as="sourcePoint" />
            <mxPoint x="640" y="470" as="targetPoint" />
          </mxGeometry>
        </mxCell>
      </root>
    </mxGraphModel>
  </diagram>
</mxfile>
